<?xml version="1.0" encoding="iso-8859-1"?>
<!-- Generator: Adobe Illustrator 19.0.0, SVG Export Plug-In . SVG Version: 6.00 Build 0)  -->
<svg version="1.1" id="Capa_1" xmlns="http://www.w3.org/2000/svg" xmlns:xlink="http://www.w3.org/1999/xlink" x="0px" y="0px"
	 viewBox="0 0 470 470" style="enable-background:new 0 0 470 470;" xml:space="preserve">
<g>
	<path style="fill:#F53635;" d="M418.776,435v12.5c0,4.136,3.364,7.5,7.5,7.5h10c4.136,0,7.5-3.364,7.5-7.5V435H418.776z"/>
	<rect x="418.776" y="135.813" style="fill:#FAB43E;" width="25" height="284.188"/>
	<polygon style="fill:#FDF3C2;" points="422.517,120.813 440.036,120.813 431.276,99.742 	"/>
	<path style="fill:#FDF3C2;" d="M136.224,160h155.105V85H136.224V160z M158.724,100h110.105c4.142,0,7.5,3.357,7.5,7.5
		s-3.358,7.5-7.5,7.5H158.724c-4.142,0-7.5-3.357-7.5-7.5S154.582,100,158.724,100z M158.724,130h110.105c4.142,0,7.5,3.357,7.5,7.5
		s-3.358,7.5-7.5,7.5H158.724c-4.142,0-7.5-3.357-7.5-7.5S154.582,130,158.724,130z"/>
	<path style="fill:#C40200;" d="M58.724,440c-4.142,0-7.5-3.357-7.5-7.5v-60c0-4.143,3.358-7.5,7.5-7.5c0.003,0,0.003-15,0.003-15
		c-4.145,0-7.503-3.357-7.503-7.5v-305c0-4.143,3.358-7.5,7.5-7.5c0.003,0,0.003-15,0.003-15H26.224v440h32.503
		C58.726,455,58.726,440,58.724,440z"/>
	<path style="fill:#F53635;" d="M338.829,15H58.726v15c4.141,0.002,7.497,3.358,7.497,7.5v305c0,4.142-3.356,7.498-7.497,7.5v15
		c4.141,0.002,7.497,3.358,7.497,7.5v60c0,4.142-3.356,7.498-7.497,7.5v15h280.103c12.407,0,22.5-10.094,22.5-22.5v-395
		C361.329,25.094,351.236,15,338.829,15z M306.329,167.5c0,4.143-3.358,7.5-7.5,7.5H128.724c-4.142,0-7.5-3.357-7.5-7.5v-90
		c0-4.143,3.358-7.5,7.5-7.5h170.105c4.142,0,7.5,3.357,7.5,7.5V167.5z"/>
	<path style="fill:#570100;" d="M338.829,0H18.724c-4.142,0-7.5,3.357-7.5,7.5v455c0,4.143,3.358,7.5,7.5,7.5h320.105
		c20.678,0,37.5-16.822,37.5-37.5v-395C376.329,16.822,359.507,0,338.829,0z M361.329,432.5c0,12.406-10.093,22.5-22.5,22.5H26.224
		V15h312.605c12.407,0,22.5,10.094,22.5,22.5V432.5z"/>
	<path style="fill:#570100;" d="M51.224,37.5v305c0,4.143,3.358,7.5,7.5,7.5c4.144-0.002,7.5-3.358,7.5-7.5v-305
		c0-4.142-3.356-7.498-7.497-7.5C54.582,30,51.224,33.357,51.224,37.5z"/>
	<path style="fill:#570100;" d="M51.224,372.5v60c0,4.143,3.358,7.5,7.5,7.5c4.144-0.002,7.5-3.358,7.5-7.5v-60
		c0-4.142-3.356-7.498-7.497-7.5C54.582,365,51.224,368.357,51.224,372.5z"/>
	<path style="fill:#570100;" d="M298.829,70H128.724c-4.142,0-7.5,3.357-7.5,7.5v90c0,4.143,3.358,7.5,7.5,7.5h170.105
		c4.142,0,7.5-3.357,7.5-7.5v-90C306.329,73.357,302.971,70,298.829,70z M291.329,160H136.224V85h155.105V160z"/>
	<path style="fill:#570100;" d="M158.724,115h110.105c4.142,0,7.5-3.357,7.5-7.5s-3.358-7.5-7.5-7.5H158.724
		c-4.142,0-7.5,3.357-7.5,7.5S154.582,115,158.724,115z"/>
	<path style="fill:#570100;" d="M158.724,145h110.105c4.142,0,7.5-3.357,7.5-7.5s-3.358-7.5-7.5-7.5H158.724
		c-4.142,0-7.5,3.357-7.5,7.5S154.582,145,158.724,145z"/>
	<path style="fill:#570100;" d="M458.739,127.566c-0.018-0.184-0.05-0.365-0.081-0.545c-0.011-0.061-0.016-0.122-0.028-0.183
		c-0.045-0.225-0.102-0.445-0.166-0.662c-0.005-0.017-0.008-0.033-0.013-0.05c-0.08-0.262-0.173-0.518-0.28-0.767l-19.969-48.034
		c-1.163-2.798-3.896-4.621-6.925-4.621s-5.762,1.823-6.925,4.621l-19.969,48.034c-0.107,0.249-0.2,0.505-0.28,0.767
		c-0.005,0.017-0.008,0.033-0.013,0.05c-0.064,0.217-0.121,0.437-0.166,0.662c-0.012,0.061-0.017,0.122-0.028,0.183
		c-0.031,0.18-0.063,0.361-0.081,0.545c-0.025,0.248-0.038,0.497-0.038,0.747V447.5c0,12.406,10.093,22.5,22.5,22.5h10
		c12.407,0,22.5-10.094,22.5-22.5V128.313C458.776,128.063,458.763,127.813,458.739,127.566z M436.276,455h-10
		c-4.136,0-7.5-3.364-7.5-7.5V435h25v12.5C443.776,451.636,440.412,455,436.276,455z M443.776,135.813V420h-25V135.813H443.776z
		 M422.517,120.813l8.76-21.07l8.76,21.07H422.517z"/>
</g>
<g>
</g>
<g>
</g>
<g>
</g>
<g>
</g>
<g>
</g>
<g>
</g>
<g>
</g>
<g>
</g>
<g>
</g>
<g>
</g>
<g>
</g>
<g>
</g>
<g>
</g>
<g>
</g>
<g>
</g>
</svg>
