<?xml version="1.0" encoding="iso-8859-1"?>
<!-- Generator: Adobe Illustrator 19.1.0, SVG Export Plug-In . SVG Version: 6.00 Build 0)  -->
<svg version="1.1" id="Capa_1" xmlns="http://www.w3.org/2000/svg" xmlns:xlink="http://www.w3.org/1999/xlink" x="0px" y="0px"
	 viewBox="0 0 426.069 426.069" style="enable-background:new 0 0 426.069 426.069;" xml:space="preserve">
<g>
	<path style="fill:#CCFF66;" d="M131.085,101.914c5.534,47.198,35.435,56.447,52.616,57.784l-30.516-28.995
		c-2.002-1.902-2.082-5.067-0.18-7.069c1.902-2.001,5.066-2.081,7.068-0.181l31.609,30.034c-0.1-12.13-3.666-22.311-10.677-30.347
		C166.804,106.865,142.068,102.886,131.085,101.914z"/>
	<path style="fill:#CCFF66;" d="M273.065,123.634c1.902,2.002,1.821,5.167-0.181,7.069l-30.517,28.995
		c17.18-1.336,47.082-10.576,52.616-57.775c-11.003,0.988-35.797,4.999-49.948,21.25c-6.993,8.029-10.55,18.201-10.649,30.316
		l31.61-30.035C267.999,121.552,271.163,121.634,273.065,123.634z"/>
	<path style="fill:#669933;" d="M130.788,203.246c5.344,46.256,33.238,56.445,52.665,57.771l-30.263-28.993
		c-1.994-1.91-2.062-5.075-0.152-7.069c1.912-1.995,5.076-2.061,7.07-0.151l31.216,29.906c-0.109-12.11-3.675-22.273-10.677-30.292
		C166.458,208.167,141.755,204.209,130.788,203.246z"/>
	<path style="fill:#669933;" d="M273.03,224.955c1.91,1.994,1.843,5.159-0.151,7.069l-30.263,28.993
		c19.427-1.327,47.318-11.516,52.665-57.763c-10.985,0.98-35.746,4.969-49.887,21.194c-6.982,8.013-10.539,18.166-10.648,30.26
		l31.216-29.905C267.954,222.893,271.12,222.96,273.03,224.955z"/>
	<path style="fill:#CC9933;" d="M213.034,362.746c-50.391,0-95.357,21.592-112.808,53.322h225.615
		C308.392,384.338,263.425,362.746,213.034,362.746z M181.004,394.593c-0.93,0.94-2.21,1.47-3.53,1.47
		c-1.32,0-2.609-0.529-3.539-1.47c-0.931-0.93-1.461-2.22-1.461-3.53c0-1.319,0.53-2.609,1.461-3.539
		c0.93-0.931,2.219-1.461,3.539-1.461c1.311,0,2.6,0.53,3.53,1.461c0.931,0.93,1.47,2.22,1.47,3.539
		C182.474,392.373,181.935,393.663,181.004,394.593z M216.574,406.494c-0.931,0.93-2.22,1.46-3.54,1.46s-2.61-0.53-3.54-1.46
		c-0.92-0.931-1.46-2.22-1.46-3.54c0-1.32,0.54-2.61,1.47-3.53c0.92-0.93,2.21-1.47,3.53-1.47s2.609,0.54,3.54,1.47
		c0.93,0.92,1.46,2.21,1.46,3.53C218.034,404.274,217.504,405.563,216.574,406.494z M216.564,382.703
		c-0.93,0.93-2.209,1.47-3.529,1.47c-1.311,0-2.6-0.54-3.54-1.47c-0.931-0.93-1.46-2.22-1.46-3.53c0-1.32,0.529-2.61,1.46-3.54
		c0.94-0.93,2.22-1.47,3.54-1.47s2.609,0.54,3.529,1.47c0.94,0.93,1.471,2.22,1.471,3.54
		C218.034,380.484,217.504,381.774,216.564,382.703z M252.134,394.593c-0.93,0.94-2.22,1.47-3.539,1.47
		c-1.32,0-2.6-0.529-3.541-1.47c-0.93-0.93-1.459-2.22-1.459-3.53c0-1.319,0.529-2.609,1.469-3.539
		c0.931-0.931,2.211-1.461,3.531-1.461c1.319,0,2.609,0.53,3.539,1.461c0.93,0.93,1.461,2.22,1.461,3.539
		C253.595,392.373,253.064,393.663,252.134,394.593z"/>
	<path style="fill:#669933;" d="M208.034,56.768c0-2.762,2.238-5,5-5s5,2.238,5,5v29.933c7.597-6.588,12.067-14.35,13.302-23.172
		c2.823-20.175-11.333-41.464-18.348-50.581c-14.913,19.433-20.919,36.926-17.855,52.06c2.078,10.268,8.013,17.476,12.901,21.879
		V56.768z"/>
	<path style="fill:#663333;" d="M213.034,374.163c-1.32,0-2.6,0.54-3.54,1.47c-0.931,0.93-1.46,2.22-1.46,3.54
		c0,1.311,0.529,2.601,1.46,3.53c0.94,0.93,2.229,1.47,3.54,1.47c1.32,0,2.6-0.54,3.529-1.47c0.94-0.93,1.471-2.22,1.471-3.53
		c0-1.32-0.53-2.61-1.471-3.54C215.644,374.703,214.355,374.163,213.034,374.163z"/>
	<path style="fill:#663333;" d="M213.034,397.953c-1.32,0-2.61,0.54-3.53,1.47c-0.93,0.92-1.47,2.21-1.47,3.53
		c0,1.32,0.54,2.609,1.46,3.54c0.93,0.93,2.22,1.46,3.54,1.46s2.609-0.53,3.54-1.46c0.93-0.931,1.46-2.22,1.46-3.54
		c0-1.32-0.53-2.61-1.46-3.53C215.644,398.494,214.355,397.953,213.034,397.953z"/>
	<path style="fill:#663333;" d="M177.474,386.063c-1.32,0-2.609,0.53-3.539,1.461c-0.931,0.93-1.461,2.22-1.461,3.539
		c0,1.31,0.53,2.601,1.461,3.53c0.93,0.94,2.219,1.47,3.539,1.47c1.32,0,2.6-0.529,3.53-1.47c0.931-0.93,1.47-2.22,1.47-3.53
		c0-1.319-0.539-2.609-1.47-3.539C180.074,386.593,178.784,386.063,177.474,386.063z"/>
	<path style="fill:#663333;" d="M248.595,386.063c-1.32,0-2.6,0.53-3.531,1.461c-0.939,0.93-1.469,2.22-1.469,3.539
		c0,1.31,0.529,2.601,1.459,3.53c0.941,0.94,2.221,1.47,3.541,1.47c1.319,0,2.609-0.529,3.539-1.47c0.93-0.93,1.461-2.22,1.461-3.53
		c0-1.319-0.531-2.609-1.461-3.539C251.204,386.593,249.914,386.063,248.595,386.063z"/>
	<path style="fill:#663333;" d="M291.726,371.292c-21.449-11.426-46.833-17.774-73.691-18.476v-68.249l14.207-13.611
		c1.388,0.117,3.28,0.225,5.557,0.225c8.423,0,24.712-1.543,39.17-11.881c17.102-12.228,26.797-32.753,28.814-61.006
		c0.1-1.385-0.382-2.748-1.328-3.764c-0.945-1.016-2.272-1.593-3.658-1.593c-0.001,0-0.001,0-0.002,0
		c-1.681,0-41.416,0.291-62.905,24.903c-10.419,11.934-14.667,27.404-12.674,45.999l-7.18,6.879V182.82l13.837-13.147
		c1.378,0.115,3.256,0.222,5.517,0.222c0.002,0,0.001,0,0.002,0c8.43,0,24.733-1.544,39.215-11.876
		c17.147-12.236,26.865-32.779,28.886-61.06c0.099-1.386-0.383-2.749-1.329-3.766c-0.946-1.015-2.271-1.591-3.658-1.591h-0.004
		c-1.684,0.002-41.468,0.319-62.971,24.965c-10.415,11.936-14.662,27.399-12.675,45.979l-6.819,6.479V99.253
		c13.487-9.059,21.295-20.61,23.211-34.376c4.334-31.152-23.436-61.954-24.619-63.25c-0.977-1.068-2.374-1.67-3.812-1.625
		c-1.447,0.035-2.807,0.694-3.729,1.809c-19.701,23.784-27.692,45.714-23.753,65.18c3.722,18.382,17.015,28.794,22.703,32.495
		v69.539l-6.819-6.48c1.987-18.578-2.26-34.042-12.674-45.977c-21.503-24.646-61.288-24.963-62.971-24.965h-0.005
		c-1.387,0-2.711,0.576-3.657,1.591c-0.946,1.017-1.429,2.38-1.329,3.766c2.02,28.28,11.738,48.823,28.886,61.06
		c14.481,10.333,30.786,11.876,39.216,11.876c2.261,0,4.139-0.106,5.517-0.222l13.837,13.147v87.899l-7.179-6.878
		c1.992-18.595-2.255-34.065-12.674-45.999c-21.49-24.612-61.225-24.903-62.906-24.903h-0.001c-1.388,0-2.714,0.577-3.659,1.593
		c-0.945,1.016-1.427,2.379-1.328,3.764c2.018,28.253,11.713,48.778,28.814,61.006c14.459,10.338,30.748,11.881,39.17,11.881
		c2.277,0,4.17-0.108,5.558-0.225l14.206,13.61v68.25c-26.858,0.701-52.242,7.05-73.691,18.476
		c-22.391,11.928-38.963,28.938-46.664,47.895c-0.626,1.542-0.444,3.294,0.484,4.674c0.93,1.381,2.484,2.208,4.148,2.208h241.445
		c1.664,0,3.219-0.827,4.148-2.208c0.929-1.38,1.11-3.132,0.484-4.674C330.689,400.23,314.116,383.22,291.726,371.292z
		 M245.394,224.45c14.141-16.226,38.901-20.215,49.887-21.194c-5.347,46.247-33.238,56.436-52.665,57.763l30.263-28.993
		c1.994-1.91,2.061-5.075,0.151-7.069c-1.91-1.995-5.076-2.062-7.069-0.151l-31.216,29.905
		C234.855,242.616,238.411,232.462,245.394,224.45z M245.035,123.173c14.151-16.251,38.945-20.262,49.948-21.25
		c-5.534,47.199-35.436,56.439-52.616,57.775l30.517-28.995c2.002-1.902,2.083-5.067,0.181-7.069c-1.901-2-5.065-2.082-7.068-0.181
		l-31.61,30.035C234.486,141.374,238.042,131.202,245.035,123.173z M160.073,123.453c-2.002-1.9-5.166-1.82-7.068,0.181
		c-1.902,2.002-1.822,5.167,0.18,7.069l30.516,28.995c-17.181-1.337-47.081-10.586-52.616-57.784
		c10.982,0.972,35.719,4.95,49.921,21.226c7.011,8.035,10.577,18.217,10.677,30.347L160.073,123.453z M160.109,224.804
		c-1.994-1.909-5.158-1.844-7.07,0.151c-1.91,1.994-1.842,5.159,0.152,7.069l30.263,28.993
		c-19.428-1.326-47.322-11.516-52.665-57.771c10.967,0.963,35.67,4.921,49.859,21.172c7.002,8.019,10.568,18.182,10.677,30.292
		L160.109,224.804z M195.133,65.007c-3.063-15.134,2.942-32.627,17.855-52.06c7.015,9.117,21.171,30.406,18.348,50.581
		c-1.234,8.822-5.705,16.584-13.302,23.172V56.768c0-2.762-2.238-5-5-5s-5,2.238-5,5v30.118
		C203.146,82.483,197.211,75.275,195.133,65.007z M100.227,416.069c17.45-31.73,62.417-53.322,112.808-53.322
		s95.357,21.592,112.808,53.322H100.227z"/>
</g>
<g>
</g>
<g>
</g>
<g>
</g>
<g>
</g>
<g>
</g>
<g>
</g>
<g>
</g>
<g>
</g>
<g>
</g>
<g>
</g>
<g>
</g>
<g>
</g>
<g>
</g>
<g>
</g>
<g>
</g>
</svg>
